<?xml version="1.0" encoding="UTF-8" standalone="no"?>
<!DOCTYPE svg PUBLIC "-//W3C//DTD SVG 20010904//EN"
              "http://www.w3.org/TR/2001/REC-SVG-20010904/DTD/svg10.dtd">

<svg xmlns="http://www.w3.org/2000/svg"
     width="0.853333in" height="0.853333in"
     viewBox="0 0 256 256">
  <path id="Selection #2"
        fill="none" stroke="black" stroke-width="1"
        d="M 119.00,150.00
           C 119.00,150.00 127.28,122.00 127.28,122.00
             128.10,119.28 129.31,113.41 131.51,111.70
             133.66,109.99 136.65,111.06 139.00,111.70
             139.00,111.70 155.00,116.29 155.00,116.29
             157.04,116.88 160.59,117.55 161.73,119.48
             163.15,121.88 161.16,126.48 160.42,129.00
             160.42,129.00 153.34,152.00 153.34,152.00
             152.61,154.29 151.74,158.64 149.57,159.89
             146.58,161.62 136.66,157.50 133.00,156.79
             127.69,155.75 117.84,158.37 112.00,158.83
             109.96,158.99 107.45,159.10 105.98,157.40
             104.65,155.86 104.10,151.10 103.75,149.00
             103.75,149.00 100.75,129.00 100.75,129.00
             100.33,126.40 98.87,119.48 100.11,117.31
             101.37,115.12 104.74,114.79 107.00,114.42
             107.00,114.42 125.00,112.00 125.00,112.00
             125.00,112.00 117.66,138.00 117.66,138.00
             116.11,142.97 113.65,146.90 119.00,150.00 Z
           M 151.00,138.00
           C 150.64,123.85 137.11,121.57 132.00,131.86
             132.00,131.86 141.90,131.86 141.90,131.86
             141.90,131.86 151.00,138.00 151.00,138.00 Z
           M 140.99,133.03
           C 136.76,134.12 138.43,137.67 140.26,138.18
             142.54,138.80 145.73,135.53 140.99,133.03 Z
           M 150.00,139.14
           C 150.00,139.14 140.05,139.14 140.05,139.14
             140.05,139.14 131.00,134.00 131.00,134.00
             131.79,148.13 145.03,149.18 150.00,139.14 Z" />
</svg>
