<?xml version="1.0" encoding="UTF-8" standalone="no"?>
<!DOCTYPE svg PUBLIC "-//W3C//DTD SVG 20010904//EN"
              "http://www.w3.org/TR/2001/REC-SVG-20010904/DTD/svg10.dtd">

<svg xmlns="http://www.w3.org/2000/svg"
     width="0.853333in" height="0.853333in"
     viewBox="0 0 256 256">
  <path id="Selection #5"
        fill="none" stroke="black" stroke-width="1"
        d="M 90.00,110.00
           C 90.00,110.00 104.00,115.04 104.00,115.04
             104.00,115.04 133.00,115.04 133.00,115.04
             137.48,115.00 146.98,113.63 150.00,117.00
             150.00,117.00 167.00,110.00 167.00,110.00
             165.17,114.22 156.75,130.98 153.79,133.30
             150.83,135.63 133.65,141.06 131.02,145.27
             129.79,147.25 130.01,150.71 130.00,153.00
             130.00,153.00 145.00,153.00 145.00,153.00
             145.00,153.00 147.00,167.00 147.00,167.00
             147.00,167.00 109.00,167.00 109.00,167.00
             109.00,167.00 111.00,153.00 111.00,153.00
             111.00,153.00 127.00,153.00 127.00,153.00
             126.99,150.77 127.23,147.30 125.98,145.41
             125.04,143.99 114.05,137.98 112.00,137.10
             109.20,135.91 105.61,135.19 103.21,133.30
             100.26,130.98 91.83,114.22 90.00,110.00 Z
           M 99.00,117.00
           C 99.00,117.00 98.00,117.00 98.00,117.00
             98.00,117.00 99.00,118.00 99.00,118.00
             99.00,118.00 99.00,117.00 99.00,117.00 Z
           M 159.00,117.00
           C 159.00,117.00 158.00,117.00 158.00,117.00
             158.00,117.00 159.00,118.00 159.00,118.00
             159.00,118.00 159.00,117.00 159.00,117.00 Z
           M 100.00,118.00
           C 99.13,124.49 105.15,131.23 111.00,133.00
             108.74,124.59 108.22,121.60 100.00,118.00 Z
           M 158.00,118.00
           C 148.07,120.84 148.44,124.34 145.00,133.00
             152.94,131.47 155.91,125.32 158.00,118.00 Z" />
</svg>
