<?xml version="1.0" encoding="UTF-8" standalone="no"?>
<!DOCTYPE svg PUBLIC "-//W3C//DTD SVG 20010904//EN"
              "http://www.w3.org/TR/2001/REC-SVG-20010904/DTD/svg10.dtd">

<svg xmlns="http://www.w3.org/2000/svg"
     width="0.853333in" height="0.853333in"
     viewBox="0 0 256 256">
  <path id="Selection #3"
        fill="none" stroke="black" stroke-width="1"
        d="M 117.00,101.00
           C 117.00,101.00 137.00,101.00 137.00,101.00
             137.00,101.00 137.00,119.00 137.00,119.00
             137.04,121.14 136.96,123.77 138.60,125.40
             141.12,127.92 153.11,126.94 157.00,127.00
             159.39,127.04 162.01,126.81 163.26,129.29
             164.24,131.23 164.03,137.59 164.00,140.00
             163.97,141.89 164.04,144.88 162.83,146.43
             161.26,148.41 157.30,148.00 155.00,148.00
             151.72,148.01 141.68,147.45 139.31,149.02
             136.73,150.75 137.02,154.27 137.00,157.00
             137.00,157.00 137.00,174.00 137.00,174.00
             137.00,174.00 117.00,174.00 117.00,174.00
             117.00,174.00 117.00,156.00 117.00,156.00
             116.95,153.48 117.05,150.60 114.69,149.02
             112.21,147.37 100.58,148.06 97.00,148.00
             89.37,147.87 89.86,145.62 90.00,135.00
             90.03,132.85 89.89,129.48 91.74,127.99
             93.05,126.93 95.41,127.03 97.00,127.00
             100.58,126.94 112.21,127.63 114.69,125.98
             117.27,124.25 116.98,120.73 117.00,118.00
             117.00,118.00 117.00,101.00 117.00,101.00 Z
           M 133.00,113.00
           C 129.26,105.20 124.74,105.20 121.00,113.00
             121.00,113.00 133.00,113.00 133.00,113.00 Z
           M 103.00,132.00
           C 94.74,134.46 94.74,140.54 103.00,143.00
             103.00,143.00 103.00,132.00 103.00,132.00 Z
           M 151.00,143.00
           C 159.26,140.54 159.26,134.46 151.00,132.00
             151.00,132.00 151.00,143.00 151.00,143.00 Z
           M 133.00,162.00
           C 133.00,162.00 121.00,162.00 121.00,162.00
             124.74,169.80 129.26,169.80 133.00,162.00 Z" />
</svg>
