<?xml version="1.0" encoding="UTF-8" standalone="no"?>
<!DOCTYPE svg PUBLIC "-//W3C//DTD SVG 20010904//EN"
              "http://www.w3.org/TR/2001/REC-SVG-20010904/DTD/svg10.dtd">

<svg xmlns="http://www.w3.org/2000/svg"
     width="0.853333in" height="0.853333in"
     viewBox="0 0 256 256">
  <path id="Selection #6"
        fill="none" stroke="black" stroke-width="1"
        d="M 157.00,113.00
           C 158.89,119.67 158.00,141.72 158.00,150.00
             158.00,154.38 158.68,161.29 156.26,164.96
             152.86,170.12 148.48,169.99 143.00,170.00
             143.00,170.00 95.00,170.00 95.00,170.00
             86.85,169.85 87.01,167.22 87.00,160.00
             87.00,160.00 87.00,114.00 87.00,114.00
             87.14,106.51 89.26,107.01 96.00,107.00
             96.00,107.00 129.00,107.00 129.00,107.00
             132.03,107.00 140.42,106.51 142.69,108.02
             145.45,109.86 144.99,114.09 145.00,117.00
             145.00,117.00 145.00,149.00 145.00,149.00
             145.01,152.66 145.02,165.20 151.86,162.60
             156.27,160.93 155.99,152.83 156.00,149.00
             156.00,149.00 156.00,126.00 156.00,126.00
             156.00,121.72 155.40,117.03 157.00,113.00 Z
           M 150.00,110.00
           C 153.05,114.15 152.00,120.05 152.00,125.00
             152.00,125.00 152.00,160.00 152.00,160.00
             148.52,157.67 149.03,155.94 149.00,152.00
             148.94,143.34 148.10,116.70 150.00,110.00 Z
           M 118.00,116.00
           C 118.00,116.00 92.00,116.00 92.00,116.00
             92.00,116.00 92.00,142.00 92.00,142.00
             92.00,142.00 118.00,142.00 118.00,142.00
             118.00,142.00 118.00,116.00 118.00,116.00 Z
           M 140.00,116.00
           C 124.48,116.00 123.29,114.82 123.00,123.00
             123.00,123.00 140.00,123.00 140.00,123.00
             140.00,123.00 140.00,116.00 140.00,116.00 Z
           M 140.00,126.00
           C 140.00,126.00 123.00,126.00 123.00,126.00
             123.00,126.00 123.00,132.00 123.00,132.00
             123.00,132.00 140.00,132.00 140.00,132.00
             140.00,132.00 140.00,126.00 140.00,126.00 Z
           M 140.00,135.00
           C 140.00,135.00 123.00,135.00 123.00,135.00
             123.00,135.00 123.00,142.00 123.00,142.00
             123.00,142.00 140.00,142.00 140.00,142.00
             140.00,142.00 140.00,135.00 140.00,135.00 Z
           M 140.00,148.00
           C 140.00,148.00 92.00,148.00 92.00,148.00
             92.00,148.00 92.00,151.00 92.00,151.00
             92.00,151.00 140.00,151.00 140.00,151.00
             140.00,151.00 140.00,148.00 140.00,148.00 Z
           M 140.00,154.00
           C 140.00,154.00 92.00,154.00 92.00,154.00
             92.00,154.00 92.00,157.00 92.00,157.00
             92.00,157.00 140.00,157.00 140.00,157.00
             140.00,157.00 140.00,154.00 140.00,154.00 Z
           M 140.00,160.00
           C 140.00,160.00 92.00,160.00 92.00,160.00
             92.00,160.00 92.00,164.00 92.00,164.00
             92.00,164.00 140.00,164.00 140.00,164.00
             140.00,164.00 140.00,160.00 140.00,160.00 Z" />
</svg>
