<?xml version="1.0" encoding="UTF-8" standalone="no"?>
<!DOCTYPE svg PUBLIC "-//W3C//DTD SVG 20010904//EN"
              "http://www.w3.org/TR/2001/REC-SVG-20010904/DTD/svg10.dtd">

<svg xmlns="http://www.w3.org/2000/svg"
     width="0.853333in" height="0.853333in"
     viewBox="0 0 256 256">
  <path id="Selection #1"
        fill="none" stroke="black" stroke-width="1"
        d="M 108.00,126.00
           C 109.32,99.14 148.68,99.14 150.00,126.00
             147.33,126.00 142.63,126.36 140.37,124.98
             137.55,123.25 135.31,117.21 129.00,117.21
             122.69,117.21 120.45,123.25 117.63,124.98
             115.37,126.36 110.67,126.00 108.00,126.00 Z
           M 126.06,122.03
           C 136.44,118.73 138.36,130.40 131.89,133.81
             126.04,136.90 117.38,128.79 126.06,122.03 Z
           M 108.00,130.00
           C 108.00,130.00 119.00,130.00 119.00,130.00
             123.99,140.45 134.01,140.45 139.00,130.00
             139.00,130.00 150.00,130.00 150.00,130.00
             147.64,155.97 109.41,155.18 108.00,130.00 Z" />
</svg>
