<?xml version="1.0" encoding="UTF-8" standalone="no"?>
<!DOCTYPE svg PUBLIC "-//W3C//DTD SVG 20010904//EN"
              "http://www.w3.org/TR/2001/REC-SVG-20010904/DTD/svg10.dtd">

<svg xmlns="http://www.w3.org/2000/svg"
     width="0.853333in" height="0.853333in"
     viewBox="0 0 256 256">
  <path id="Selection #4"
        fill="none" stroke="black" stroke-width="1"
        d="M 97.00,103.07
           C 98.41,102.81 99.03,102.35 100.55,103.07
             100.55,103.07 114.00,115.65 114.00,115.65
             116.67,117.51 123.96,118.04 127.00,116.81
             131.29,115.07 140.00,106.22 142.00,102.00
             142.00,102.00 146.00,103.00 146.00,103.00
             146.00,103.00 146.00,105.00 146.00,105.00
             140.86,107.29 119.81,121.68 136.00,123.00
             136.00,123.00 133.00,129.00 133.00,129.00
             129.04,128.20 125.09,126.85 121.00,127.19
             114.42,127.73 112.17,131.12 108.00,124.00
             113.51,123.08 115.15,120.84 110.94,116.29
             110.94,116.29 97.00,103.07 97.00,103.07 Z
           M 85.00,113.00
           C 95.99,113.64 105.23,123.74 110.00,133.00
             121.33,129.29 122.67,129.29 134.00,133.00
             139.10,123.33 148.55,113.64 160.00,113.00
             157.54,123.78 150.82,132.73 141.00,138.00
             142.77,141.50 144.63,144.97 144.74,149.00
             145.30,169.83 101.01,170.35 99.75,150.00
             99.48,145.57 101.18,141.88 103.00,138.00
             93.97,133.16 85.59,123.54 85.00,113.00 Z
           M 88.00,130.00
           C 88.00,130.00 99.00,139.00 99.00,139.00
             97.60,142.51 95.95,146.13 96.14,150.00
             96.44,155.93 101.25,160.85 106.00,163.87
             120.19,172.89 147.79,167.12 147.92,149.00
             147.95,144.96 146.65,142.53 145.00,139.00
             145.00,139.00 156.00,130.00 156.00,130.00
             157.45,133.77 158.65,136.90 158.91,141.00
             159.28,146.99 157.69,156.31 153.73,160.96
             144.37,171.91 123.15,172.02 110.00,170.13
             104.76,169.38 99.50,167.95 95.00,165.03
             85.20,158.69 84.95,151.40 85.00,141.00
             85.03,135.63 84.97,134.60 88.00,130.00 Z" />
</svg>
